<?xml version="1.0" encoding="UTF-8"?>
<svg version="1.1" xmlns="http://www.w3.org/2000/svg" width="192" height="192">
<path d="M0 0 C1.97637451 -0.016073 1.97637451 -0.016073 3.99267578 -0.0324707 C30.22133659 0.34297394 52.72080832 12.74735956 70.96484375 30.9609375 C76.91446924 37.24618289 81.35563116 44.11948857 85.625 51.625 C86.02460938 52.28757813 86.42421875 52.95015625 86.8359375 53.6328125 C97.2631329 72.23492909 99.36825911 100.3573173 93.9375 120.75 C93.22399539 123.06015829 92.45783032 125.35512912 91.625 127.625 C91.25117188 128.67945313 90.87734375 129.73390625 90.4921875 130.8203125 C81.1080148 155.11972658 62.8878518 174.52156559 39.23193359 185.30004883 C17.65905757 194.70009833 -9.93532001 196.72910956 -32.27539062 188.46826172 C-55.76724053 179.03327921 -73.81883808 163.69861798 -86.375 141.625 C-86.77460937 140.96242187 -87.17421875 140.29984375 -87.5859375 139.6171875 C-98.0131329 121.01507091 -100.11825911 92.8926827 -94.6875 72.5 C-93.97399539 70.18984171 -93.20783032 67.89487088 -92.375 65.625 C-92.00117187 64.57054687 -91.62734375 63.51609375 -91.2421875 62.4296875 C-82.70313347 40.31862708 -67.36652294 23.80102566 -47.375 11.625 C-46.56804688 11.12097656 -45.76109375 10.61695313 -44.9296875 10.09765625 C-42.46173877 8.71330508 -40.01277906 7.65581629 -37.375 6.625 C-36.73046875 6.36702637 -36.0859375 6.10905273 -35.421875 5.84326172 C-23.75834502 1.35828288 -12.39831519 0.03566584 0 0 Z " fill="#0E1D5F" transform="translate(96.375,-0.625)"/>
<path d="M0 0 C5.02141278 4.74998506 8.11802471 8.02176629 8.5 15.0625 C8.38866438 18.80337681 8.30395956 19.65382383 5.75 22.5625 C3.39628466 23.7928512 1.55219079 24.42739309 -1 25 C13.99007281 42.70560346 13.99007281 42.70560346 35.2109375 50.28125 C43.38543919 50.50572144 48.32900007 49.73372336 54.9375 44.8125 C57.29287466 41.60062546 57.58623774 39.92260786 57.6640625 36.0625 C56.58531399 32.71203403 54.6980019 31.22312542 52 29 C48.50463604 27.24703801 44.82803252 25.9963643 41.15039062 24.68359375 C36.49553131 22.92007877 33.69224892 21.41751438 31 17 C29.79425658 10.85070854 32.36339648 7.01246609 35.4921875 1.94140625 C35.98976563 1.30074219 36.48734375 0.66007812 37 0 C37.66 0 38.32 0 39 0 C39.495 6.93 39.495 6.93 40 14 C41.60875 14.391875 43.2175 14.78375 44.875 15.1875 C53.49285873 17.55296895 62.30749387 20.81537842 67.10546875 28.8515625 C69.23809745 33.9735965 68.44372622 39.59875929 66.8125 44.75 C63.3412866 50.97424472 59.85345266 55.06944099 53.328125 58.078125 C42.66794879 61.03094376 30.07112365 60.30992012 20.01953125 55.7421875 C8.51352026 49.10353174 -1.65447643 39.91474042 -9.515625 29.21484375 C-11.64474148 27.47233 -13.33716468 27.79001131 -16 28 C-16.26554687 29.22976562 -16.53109375 30.45953125 -16.8046875 31.7265625 C-17.16128691 33.35941245 -17.51806733 34.99222287 -17.875 36.625 C-18.04902344 37.43324219 -18.22304688 38.24148437 -18.40234375 39.07421875 C-19.37070225 43.48562968 -20.4699227 47.74059564 -22 52 C-25.3 52 -28.6 52 -32 52 C-30.55945392 45.08252623 -28.72548106 38.37007927 -26.625 31.625 C-26.33367188 30.64144531 -26.04234375 29.65789062 -25.7421875 28.64453125 C-25.44828125 27.70222656 -25.154375 26.75992188 -24.8515625 25.7890625 C-24.59197754 24.94037598 -24.33239258 24.09168945 -24.06494141 23.21728516 C-22.77856482 20.53895592 -21.55449882 19.48635072 -19 18 C-15.78230044 17.63347124 -12.63610088 17.5160886 -9.40039062 17.47265625 C-6.66801385 17.38040122 -4.48817231 17.27484498 -2.078125 15.91796875 C-0.41179178 12.9535861 -0.46698859 10.18035117 -0.3125 6.8125 C-0.24675781 5.54019531 -0.18101563 4.26789063 -0.11328125 2.95703125 C-0.07589844 1.98121094 -0.03851563 1.00539063 0 0 Z " fill="#DCD0F6" transform="translate(80,74)"/>
<path d="M0 0 C3 1 3 1 4.67578125 3.40234375 C6.72481796 8.9691957 6.29499215 14.51267383 6.08789062 20.38867188 C6.10551113 23.13551313 6.18837982 25.3719233 7 28 C9.40329889 30.31246353 11.94084561 31.7083956 15 33 C14.98428955 32.31486328 14.9685791 31.62972656 14.95239258 30.92382812 C14.88955817 27.78263797 14.85085651 24.64158061 14.8125 21.5 C14.78736328 20.42234375 14.76222656 19.3446875 14.73632812 18.234375 C14.67731189 11.78193343 15.04062213 6.79458605 18 1 C18.99 0.67 19.98 0.34 21 0 C21.3403125 1.3303125 21.3403125 1.3303125 21.6875 2.6875 C23.40403727 7.01971311 25.69556925 9.83950575 29.93676758 11.9753418 C32.87876219 13.17500646 35.85779671 14.24844921 38.84960938 15.31640625 C43.49094082 17.07479613 46.36161713 18.55929325 49 23 C49.71095333 25.76017173 49.55989379 28.21184204 49 31 C46.41562167 35.30729722 43.04754973 38.04008896 38.2265625 39.55859375 C29.25018371 41.33812147 21.01952241 40.28069102 13 36 C12.29875 35.63390625 11.5975 35.2678125 10.875 34.890625 C5.37456659 31.61463157 0.95772895 27.23049816 -3.5625 22.75 C-4.19510742 22.12303223 -4.82771484 21.49606445 -5.47949219 20.85009766 C-10 16.2561969 -10 16.2561969 -10 14 C-8.73374448 13.26674971 -7.43561822 12.58814499 -6.125 11.9375 C-3.45686656 10.37244646 -2.23204305 9.55319064 -1.0234375 6.671875 C-0.55363765 4.44207871 -0.19775947 2.26928995 0 0 Z " fill="#131838" transform="translate(89,85)"/>
<path d="M0 0 C4.37409304 -0.12489723 8.7472039 -0.21493781 13.12255859 -0.2746582 C14.60646679 -0.29958838 16.09025495 -0.33354625 17.57373047 -0.37719727 C26.57738795 -0.63522521 34.44545883 -0.61520426 42 5 C44.40234375 7.4296875 44.40234375 7.4296875 45.9375 9.875 C46.46214844 10.67679688 46.98679688 11.47859375 47.52734375 12.3046875 C49.2549959 15.46670338 50.62888434 18.66839359 52 22 C52.51949219 21.04738281 53.03898437 20.09476563 53.57421875 19.11328125 C54.27820366 17.84610841 54.98265572 16.57919502 55.6875 15.3125 C56.02716797 14.68666016 56.36683594 14.06082031 56.71679688 13.41601562 C60.26699989 7.07873734 64.18833351 2.87213828 71 0 C74.34326172 -0.34057617 74.34326172 -0.34057617 77.9296875 -0.29296875 C79.86328125 -0.2784668 79.86328125 -0.2784668 81.8359375 -0.26367188 C83.18229786 -0.23861188 84.52865203 -0.21321712 85.875 -0.1875 C87.24477705 -0.17243504 88.61457002 -0.15874982 89.984375 -0.14648438 C93.32332358 -0.11121379 96.66145675 -0.06191896 100 0 C98.92598892 2.91517292 98.22189824 4.77810176 96 7 C92.53452226 7.93507036 89.27603072 8.11857328 85.69921875 8.09765625 C84.72275391 8.09443359 83.74628906 8.09121094 82.74023438 8.08789062 C81.73283203 8.07951172 80.72542969 8.07113281 79.6875 8.0625 C78.66076172 8.05798828 77.63402344 8.05347656 76.57617188 8.04882812 C74.05072118 8.03708184 71.52539095 8.02065565 69 8 C68.75378906 8.66902344 68.50757812 9.33804688 68.25390625 10.02734375 C66.42101416 14.37261128 64.11217114 18.43561756 61.83398438 22.56054688 C58.9553934 27.85481309 57.90616484 31.66300132 57.68359375 37.640625 C57.62075195 39.24550781 57.62075195 39.24550781 57.55664062 40.8828125 C57.51732422 41.99398437 57.47800781 43.10515625 57.4375 44.25 C57.37272461 45.93996094 57.37272461 45.93996094 57.30664062 47.6640625 C57.20067985 50.44258954 57.09860858 53.22120391 57 56 C49.8475897 53.15622597 49.8475897 53.15622597 48 51 C47.52068045 47.71300801 47.64246205 44.44019727 47.6875 41.125 C47.53520565 31.1996387 45.67327043 25.25304498 40 17 C39.72212646 16.31147949 39.44425293 15.62295898 39.15795898 14.91357422 C38.0161607 12.38669438 37.08933414 10.84313182 35 9 C30.21507607 7.79429201 25.47908521 7.78858036 20.5625 7.75 C17.95925875 7.6987803 15.3562714 7.63163397 12.75390625 7.546875 C11.60220947 7.53495117 10.4505127 7.52302734 9.26391602 7.51074219 C5.28773783 6.88854421 3.07273679 5.56667663 0 3 C0 2.01 0 1.02 0 0 Z " fill="#DDD2F6" transform="translate(47,62)"/>
<path d="M0 0 C-0.31310626 4.12150071 -0.76457785 8.04557015 -2 12 C-5.375 14.125 -5.375 14.125 -9 15 C-9.639375 15.37125 -10.27875 15.7425 -10.9375 16.125 C-13.5756165 17.24420094 -16.19758692 17.48657608 -19.03125 17.77734375 C-21.17438453 17.98752971 -21.17438453 17.98752971 -23.9375 18.625 C-24.618125 18.74875 -25.29875 18.8725 -26 19 C-27 18 -27 18 -27.09765625 15.27734375 C-27.08605469 14.17519531 -27.07445313 13.07304688 -27.0625 11.9375 C-27.05347656 10.83277344 -27.04445313 9.72804688 -27.03515625 8.58984375 C-27.02355469 7.73519531 -27.01195313 6.88054687 -27 6 C-27.66 6 -28.32 6 -29 6 C-29.268125 6.721875 -29.53625 7.44375 -29.8125 8.1875 C-31 11 -31 11 -32.5625 13.4375 C-34.17858838 16.31835321 -34.62091968 18.73990924 -35 22 C-36.625 20.375 -36.625 20.375 -38 18 C-37.5625 15.375 -37.5625 15.375 -36 12 C-35.76667969 11.15050781 -35.53335938 10.30101563 -35.29296875 9.42578125 C-33.95446983 5.91159494 -33.01571501 4.31509435 -30 2 C-23.63490323 0.56881043 -16.97798441 0.84243729 -10.49194336 1.04663086 C-6.90709225 0.9795488 -3.59217561 0 0 0 Z " fill="#101C54" transform="translate(146,68)"/>
<path d="M0 0 C0.99 0 1.98 0 3 0 C4.19287411 3.87684087 5 6.91621923 5 11 C8.63 11.66 12.26 12.32 16 13 C16.33 14.32 16.66 15.64 17 17 C18.98 17.33 20.96 17.66 23 18 C22.67 20.64 22.34 23.28 22 26 C15.36516014 29.06600733 7.91763302 29.14638116 0.9296875 27.1015625 C-1.43469519 26.15176774 -3.72677108 25.14944306 -6 24 C-4.68 23.67 -3.36 23.34 -2 23 C-2.01160156 21.99839844 -2.02320312 20.99679688 -2.03515625 19.96484375 C-2.04454398 18.62239772 -2.05364312 17.27994964 -2.0625 15.9375 C-2.07410156 14.62652344 -2.08570312 13.31554687 -2.09765625 11.96484375 C-1.84848485 1.84848485 -1.84848485 1.84848485 0 0 Z " fill="#112265" transform="translate(108,97)"/>
<path d="M0 0 C0.3403125 1.3303125 0.3403125 1.3303125 0.6875 2.6875 C2.40403727 7.01971311 4.69556925 9.83950575 8.93676758 11.9753418 C11.87876219 13.17500646 14.85779671 14.24844921 17.84960938 15.31640625 C22.49094082 17.07479613 25.36161713 18.55929325 28 23 C29.06635009 27.13994741 28.41931188 30.27008674 26.3125 33.9375 C23.78804723 36.18903896 22.32957907 36.72253508 19 37 C19.66 34.69 20.32 32.38 21 30 C19.6078125 29.9071875 19.6078125 29.9071875 18.1875 29.8125 C15 29 15 29 13.125 26.5625 C12 24 12 24 12 22 C9.69 21.67 7.38 21.34 5 21 C4.80664062 20.38511719 4.61328125 19.77023438 4.4140625 19.13671875 C4.15367188 18.32847656 3.89328125 17.52023438 3.625 16.6875 C3.36976562 15.88699219 3.11453125 15.08648437 2.8515625 14.26171875 C2.01168189 11.77275472 2.01168189 11.77275472 0 9 C-2.05925139 8.27617533 -2.05925139 8.27617533 -4 8 C-3.74438677 5.6568787 -3.40729228 3.32156597 -3 1 C-1 0 -1 0 0 0 Z " fill="#171935" transform="translate(110,85)"/>
<path d="M0 0 C1.50519497 0.0150714 3.01040451 0.02875547 4.515625 0.04101562 C8.17738941 0.07383313 11.83860021 0.12548011 15.5 0.1875 C15.479375 1.321875 15.45875 2.45625 15.4375 3.625 C15.08422523 7.00325674 15.08422523 7.00325674 16.5 8.1875 C16.72713312 13.34243418 16.20203485 17.98371605 13.0625 22.1875 C9.30775206 26.04225333 4.75915415 26.97921667 -0.5 27.1875 C-2.8046875 26.71875 -2.8046875 26.71875 -4.5 26.1875 C-4.17 27.1775 -3.84 28.1675 -3.5 29.1875 C-0.2 29.8475 3.1 30.5075 6.5 31.1875 C6.5 32.5075 6.5 33.8275 6.5 35.1875 C-0.22045875 32.99712826 -6.86724003 30.62984339 -13.5 28.1875 C-12.5409375 27.7234375 -12.5409375 27.7234375 -11.5625 27.25 C-9.56389179 26.3529837 -9.56389179 26.3529837 -8.5 25.1875 C-7.365625 25.084375 -6.23125 24.98125 -5.0625 24.875 C0.1576434 24.19656981 5.24510034 23.46586531 9.5 20.1875 C11.23637163 16.27153875 11.98027771 12.42523561 12.5 8.1875 C11.84 7.8575 11.18 7.5275 10.5 7.1875 C11.49 5.5375 12.48 3.8875 13.5 2.1875 C9.51572533 2.23200846 5.53276572 2.30220315 1.54931641 2.39501953 C-0.4629854 2.43673272 -2.47566395 2.45878531 -4.48828125 2.48046875 C-11.88627388 2.66634796 -17.28387568 3.02330021 -23.5 7.1875 C-25.15634982 9.1250718 -26.26920026 10.93103382 -27.5 13.1875 C-28.125 11.375 -28.125 11.375 -28.5 9.1875 C-27.84 8.1975 -27.18 7.2075 -26.5 6.1875 C-25.84 6.1875 -25.18 6.1875 -24.5 6.1875 C-24.5 5.1975 -24.5 4.2075 -24.5 3.1875 C-16.62264775 -0.76154106 -8.57873808 -0.14969484 0 0 Z " fill="#0A2278" transform="translate(133.5,59.8125)"/>
<path d="M0 0 C0.66 0 1.32 0 2 0 C-0.84698854 20.53466204 -16.18242672 39.81937539 -32 52.3828125 C-42.19672905 59.75544748 -53.44202872 66.01716243 -66 68 C-65.67 67.01 -65.34 66.02 -65 65 C-63.3125 64.4375 -63.3125 64.4375 -61 64 C-56.77455251 62.75157233 -52.9839104 61.08650538 -49.0859375 59.0703125 C-47.68706037 58.3525366 -46.27500951 57.65991355 -44.8515625 56.9921875 C-40.82643519 55.09184858 -38.03548686 53.32006375 -35 50 C-33.69476488 48.86657927 -32.38139326 47.74249802 -31.0625 46.625 C-27.61997875 43.64148158 -24.85068581 40.54409587 -22 37 C-21.154375 36.175 -20.30875 35.35 -19.4375 34.5 C-16.85881852 32.01189845 -16.85881852 32.01189845 -14.8125 28.6875 C-14.214375 27.800625 -13.61625 26.91375 -13 26 C-12.34 26 -11.68 26 -11 26 C-10.88785156 25.44828125 -10.77570313 24.8965625 -10.66015625 24.328125 C-9.88639227 21.59934789 -8.73182306 19.27227057 -7.4375 16.75 C-6.98246094 15.85796875 -6.52742188 14.9659375 -6.05859375 14.046875 C-5.53458984 13.03367188 -5.53458984 13.03367188 -5 12 C-4.34 12 -3.68 12 -3 12 C-2.814375 10.14375 -2.814375 10.14375 -2.625 8.25 C-2.24253695 5.1237803 -1.69450477 2.71120763 0 0 Z " fill="#0A0C20" transform="translate(187,121)"/>
<path d="M0 0 C0.99 0.33 1.98 0.66 3 1 C5.96101753 8.63630837 5.17604345 16.94112192 5 25 C2.39225238 21.79678245 1.65210084 20.1747899 2 16 C0.88625 17.0209375 0.88625 17.0209375 -0.25 18.0625 C-3 20 -3 20 -5.125 19.9375 C-7.23457849 18.88271076 -8.52749455 17.84063182 -10 16 C-10 15.34 -10 14.68 -10 14 C-8.73374448 13.26674971 -7.43561822 12.58814499 -6.125 11.9375 C-3.45686656 10.37244646 -2.23204305 9.55319064 -1.0234375 6.671875 C-0.55363765 4.44207871 -0.19775947 2.26928995 0 0 Z " fill="#161932" transform="translate(89,85)"/>
<path d="M0 0 C-0.59953862 3.35741626 -1.61893266 5.53389454 -4 8 C-7.056274 9.04786537 -9.93049531 9.02344591 -13.125 9 C-16.91435498 8.79576957 -16.91435498 8.79576957 -20 10 C-20.33 11.65 -20.66 13.3 -21 15 C-21.33 15 -21.66 15 -22 15 C-22 10.71 -22 6.42 -22 2 C-20.95199219 1.93941406 -19.90398437 1.87882812 -18.82421875 1.81640625 C-17.44529952 1.73198262 -16.06639395 1.64733553 -14.6875 1.5625 C-13.99720703 1.52318359 -13.30691406 1.48386719 -12.59570312 1.44335938 C-8.23772721 1.16967007 -4.33812166 0 0 0 Z " fill="#131838" transform="translate(142,71)"/>
<path d="M0 0 C0.33 0 0.66 0 1 0 C2.29878281 8.76678395 3.14776133 17.55827643 0 26 C-1.86940375 28.0434174 -3.7036925 29.4025687 -6 31 C-6.66 29.68 -7.32 28.36 -8 27 C-7.34 26.01 -6.68 25.02 -6 24 C-7.32 24.33 -8.64 24.66 -10 25 C-8.43117911 21.61464967 -6.80913115 18.73078071 -4.4375 15.875 C-0.93523676 11.20179935 -0.62275766 5.66058832 0 0 Z " fill="#1F2654" transform="translate(148,107)"/>
<path d="M0 0 C-6.91284647 4.04654428 -14.25824503 3.26901851 -22 3 C-22 7.29 -22 11.58 -22 16 C-22.33 16 -22.66 16 -23 16 C-23 12.04 -23 8.08 -23 4 C-23.66 4 -24.32 4 -25 4 C-25.268125 4.721875 -25.53625 5.44375 -25.8125 6.1875 C-27 9 -27 9 -28.5625 11.4375 C-30.17858838 14.31835321 -30.62091968 16.73990924 -31 20 C-32.625 18.375 -32.625 18.375 -34 16 C-33.5625 13.375 -33.5625 13.375 -32 10 C-31.76667969 9.15050781 -31.53335938 8.30101563 -31.29296875 7.42578125 C-29.95386589 3.91000931 -29.01474947 2.31970637 -26 0 C-17.9905506 -1.89758278 -7.95924562 -2.28969331 0 0 Z " fill="#474088" transform="translate(142,70)"/>
<path d="M0 0 C0 3 0 3 -1.21826172 4.46704102 C-1.78303223 4.97420654 -2.34780273 5.48137207 -2.9296875 6.00390625 C-3.86844727 6.86060913 -3.86844727 6.86060913 -4.82617188 7.73461914 C-5.8403418 8.63942017 -5.8403418 8.63942017 -6.875 9.5625 C-8.25924937 10.82133846 -9.64205798 12.08176299 -11.0234375 13.34375 C-11.70374023 13.96378906 -12.38404297 14.58382813 -13.08496094 15.22265625 C-15.64047435 17.59442291 -18.06875021 20.06350641 -20.5 22.5625 C-24.09747728 26.21411991 -27.70920947 29.20165835 -32 32 C-25.48319454 18.02646521 -12.60481618 8.17930078 0 0 Z " fill="#0C1032" transform="translate(47,12)"/>
<path d="M0 0 C2 2 2 2 2.22363281 4.09130859 C2.21348145 5.3570874 2.21348145 5.3570874 2.203125 6.6484375 C2.21472656 7.57140625 2.22632812 8.494375 2.23828125 9.4453125 C2.2460625 11.39062513 2.23837422 13.33606413 2.21484375 15.28125 C2.26365803 17.97730034 2.35330834 20.38033149 3 23 C5.89505761 25.52586024 5.89505761 25.52586024 9 27 C9 27.99 9 28.98 9 30 C4.79897412 28.59965804 2.12112327 26.61302173 -1.125 23.625 C-1.97320312 22.85414062 -2.82140625 22.08328125 -3.6953125 21.2890625 C-5.70650236 19.29150783 -7.3803758 17.31828562 -9 15 C-4.25 11 -4.25 11 -2 11 C-1.34 12.98 -0.68 14.96 0 17 C0 11.39 0 5.78 0 0 Z " fill="#181F4D" transform="translate(93,90)"/>
<path d="M0 0 C0.33 0 0.66 0 1 0 C1.125 5.75 1.125 5.75 0 8 C0.41826722 10.44525452 0.89240875 12.83304218 1.4375 15.25 C2.48006182 19.88461978 3.18538738 24.22442118 3 29 C3.99 29.33 4.98 29.66 6 30 C6.12375 31.134375 6.2475 32.26875 6.375 33.4375 C6.58125 34.613125 6.7875 35.78875 7 37 C7.66 37.33 8.32 37.66 9 38 C9.74609375 39.92578125 9.74609375 39.92578125 10.4375 42.3125 C11.51483408 45.79864258 12.77224657 48.10392054 15 51 C14.67 51.99 14.34 52.98 14 54 C4.63659993 38.50275968 -4.37998188 20.69985764 -2 2 C-1.34 1.34 -0.68 0.68 0 0 Z " fill="#080A1B" transform="translate(2,97)"/>
<path d="M0 0 C0.66 0 1.32 0 2 0 C0.10443268 13.67228345 -7.84497391 26.12663189 -16 37 C-16.66 35.68 -17.32 34.36 -18 33 C-17.21654285 31.82780457 -16.42297164 30.66236332 -15.625 29.5 C-15.18414062 28.8503125 -14.74328125 28.200625 -14.2890625 27.53125 C-13.86367187 27.0259375 -13.43828125 26.520625 -13 26 C-12.34 26 -11.68 26 -11 26 C-10.83177734 25.17242187 -10.83177734 25.17242187 -10.66015625 24.328125 C-9.88639227 21.59934789 -8.73182306 19.27227057 -7.4375 16.75 C-6.98246094 15.85796875 -6.52742187 14.9659375 -6.05859375 14.046875 C-5.70925781 13.37140625 -5.35992187 12.6959375 -5 12 C-4.34 12 -3.68 12 -3 12 C-2.87625 10.7625 -2.7525 9.525 -2.625 8.25 C-2.24253695 5.1237803 -1.69450477 2.71120763 0 0 Z " fill="#0A102F" transform="translate(187,121)"/>
<path d="M0 0 C1.50519497 0.0150714 3.01040451 0.02875547 4.515625 0.04101562 C8.17738941 0.07383313 11.83860021 0.12548011 15.5 0.1875 C15.625 3.0625 15.625 3.0625 15.5 6.1875 C14.84 6.8475 14.18 7.5075 13.5 8.1875 C13.5 7.5275 13.5 6.8675 13.5 6.1875 C12.84 5.8575 12.18 5.5275 11.5 5.1875 C12.16 4.1975 12.82 3.2075 13.5 2.1875 C9.51572533 2.23200846 5.53276572 2.30220315 1.54931641 2.39501953 C-0.4629854 2.43673272 -2.47566395 2.45878531 -4.48828125 2.48046875 C-11.88627388 2.66634796 -17.28387568 3.02330021 -23.5 7.1875 C-25.15634982 9.1250718 -26.26920026 10.93103382 -27.5 13.1875 C-28.125 11.375 -28.125 11.375 -28.5 9.1875 C-27.84 8.1975 -27.18 7.2075 -26.5 6.1875 C-25.84 6.1875 -25.18 6.1875 -24.5 6.1875 C-24.5 5.1975 -24.5 4.2075 -24.5 3.1875 C-16.62264775 -0.76154106 -8.57873808 -0.14969484 0 0 Z " fill="#193196" transform="translate(133.5,59.8125)"/>
<path d="M0 0 C0.99 0.33 1.98 0.66 3 1 C5.20863366 1.21854681 7.42204469 1.39009026 9.63671875 1.53515625 C10.93544922 1.62216797 12.23417969 1.70917969 13.57226562 1.79882812 C14.94400494 1.88680424 16.3157498 1.97469376 17.6875 2.0625 C19.07098756 2.15393414 20.45445148 2.24572683 21.83789062 2.33789062 C25.225044 2.56212726 28.61239699 2.78267968 32 3 C32 3.99 32 4.98 32 6 C27.95753135 5.9187917 23.91653464 5.80597419 19.875 5.6875 C18.73289062 5.66494141 17.59078125 5.64238281 16.4140625 5.61914062 C5.67500759 5.27574061 5.67500759 5.27574061 1 2 C0.67 1.34 0.34 0.68 0 0 Z " fill="#5855DD" transform="translate(50,67)"/>
<path d="M0 0 C5.47058824 0.60784314 5.47058824 0.60784314 7.6875 2.25 C9.39680624 4.52907499 9.30989536 5.87240671 9.1875 8.6875 C9.16042969 9.49574219 9.13335937 10.30398437 9.10546875 11.13671875 C9.07066406 11.75160156 9.03585938 12.36648437 9 13 C5.96101874 11.98700625 4.87860833 11.5048111 3 9 C2.8125 6.3125 2.8125 6.3125 3 4 C2.34 4 1.68 4 1 4 C0.67 2.68 0.34 1.36 0 0 Z " fill="#13152A" transform="translate(128,102)"/>
<path d="M0 0 C0.36597111 7.44141252 0.36597111 7.44141252 -1.1875 9.8125 C-3.42351076 11.27747257 -5.67491599 12.68035773 -8 14 C-7.34 12.35 -6.68 10.7 -6 9 C-7.32 9.33 -8.64 9.66 -10 10 C-8.31933467 5.89170697 -5.2559965 0 0 0 Z " fill="#1B1D30" transform="translate(148,122)"/>
<path d="M0 0 C1.2065625 0.0309375 1.2065625 0.0309375 2.4375 0.0625 C1.80215332 0.31161133 1.16680664 0.56072266 0.51220703 0.81738281 C-1.67812562 1.86105241 -1.67812562 1.86105241 -2.35205078 3.84667969 C-2.48595215 4.55211914 -2.61985352 5.25755859 -2.7578125 5.984375 C-2.91636719 6.76296875 -3.07492188 7.5415625 -3.23828125 8.34375 C-3.38652344 9.1584375 -3.53476562 9.973125 -3.6875 10.8125 C-3.99966718 12.41203432 -4.31471666 14.01100914 -4.6328125 15.609375 C-4.78266602 16.36927734 -4.93251953 17.12917969 -5.08691406 17.91210938 C-5.70488644 20.70630891 -6.5831685 23.37583837 -7.5625 26.0625 C-10.8625 26.0625 -14.1625 26.0625 -17.5625 26.0625 C-17.0675 24.5775 -17.0675 24.5775 -16.5625 23.0625 C-16.5625 23.7225 -16.5625 24.3825 -16.5625 25.0625 C-13.9225 25.0625 -11.2825 25.0625 -8.5625 25.0625 C-8.48 23.886875 -8.3975 22.71125 -8.3125 21.5 C-7.81155371 16.89571426 -6.75480742 12.52621419 -5.5625 8.0625 C-5.38428711 7.3914624 -5.20607422 6.7204248 -5.02246094 6.02905273 C-3.3908173 0.08270286 -3.3908173 0.08270286 0 0 Z " fill="#A28DE9" transform="translate(65.5625,99.9375)"/>
<path d="M0 0 C5.94823654 0.02697613 10.34577919 0.8588112 14.75390625 5.04296875 C17.10675771 8.73819941 16.66408096 12.80421572 16 17 C15.67 17.66 15.34 18.32 15 19 C14.34 19 13.68 19 13 19 C12.67 19.99 12.34 20.98 12 22 C11.34 21.67 10.68 21.34 10 21 C10.495 20.505 10.99 20.01 11.5 19.5 C13.57795217 16.03674638 13.80459458 12.88371615 13 9 C9.54849415 4.14631989 5.46991745 2.76149884 0 1 C0 0.67 0 0.34 0 0 Z " fill="#A087EE" transform="translate(124,99)"/>
<path d="M0 0 C0.66 0.33 1.32 0.66 2 1 C1.97456604 7.32033826 1.39964524 11.99427018 -3.1015625 16.66015625 C-6.41654881 18.99974535 -10.02698883 19.56738323 -14 20 C-11.7949311 17.50460854 -10.06484743 16.59715513 -6.9375 15.5625 C-4.73661696 14.66840167 -4.73661696 14.66840167 -3 13 C-1.9814839 9.83318524 -1.56989096 6.88987115 -1.25390625 3.58203125 C-1 1 -1 1 0 0 Z " fill="#062285" transform="translate(148,67)"/>
<path d="M0 0 C2 2 2 2 2.22363281 4.09130859 C2.21686523 4.93516113 2.21009766 5.77901367 2.203125 6.6484375 C2.21472656 7.57140625 2.22632812 8.494375 2.23828125 9.4453125 C2.2460625 11.39062513 2.23837422 13.33606413 2.21484375 15.28125 C2.26365803 17.97730034 2.35330834 20.38033149 3 23 C5.89505761 25.52586024 5.89505761 25.52586024 9 27 C9 27.99 9 28.98 9 30 C5.54249345 28.75145597 2.66307114 27.56725954 0 25 C-0.45410156 22.36450195 -0.45410156 22.36450195 -0.390625 19.23828125 C-0.37773438 18.12001953 -0.36484375 17.00175781 -0.3515625 15.84960938 C-0.31804687 14.68236328 -0.28453125 13.51511719 -0.25 12.3125 C-0.23195313 11.13365234 -0.21390625 9.95480469 -0.1953125 8.74023438 C-0.14811859 5.82601074 -0.08229077 2.91340969 0 0 Z " fill="#373452" transform="translate(93,90)"/>
<path d="M0 0 C0.33 0 0.66 0 1 0 C0.91278662 5.32001602 0.91278662 5.32001602 0 8 C-3.3125 9.875 -3.3125 9.875 -7 11 C-7.639375 11.37125 -8.27875 11.7425 -8.9375 12.125 C-12.1826354 13.50172411 -15.50232309 13.61136923 -19 14 C-19.99 14.33 -20.98 14.66 -22 15 C-21.67 14.01 -21.34 13.02 -21 12 C-18.19921875 11.05078125 -18.19921875 11.05078125 -14.6875 10.3125 C-12.96080078 9.93544922 -12.96080078 9.93544922 -11.19921875 9.55078125 C-8 9 -8 9 -4 9 C-3.34 7.35 -2.68 5.7 -2 4 C-1.34 4 -0.68 4 0 4 C0 2.68 0 1.36 0 0 Z " fill="#0A1F6B" transform="translate(144,72)"/>
<path d="M0 0 C1.98 0 3.96 0 6 0 C6.103125 0.639375 6.20625 1.27875 6.3125 1.9375 C6.539375 2.618125 6.76625 3.29875 7 4 C7.99 4.33 8.98 4.66 10 5 C10.33 6.65 10.66 8.3 11 10 C8 12 8 12 5 12 C5.66 9.69 6.32 7.38 7 5 C4.03 4.505 4.03 4.505 1 4 C0.67 2.68 0.34 1.36 0 0 Z " fill="#141E50" transform="translate(124,110)"/>
<path d="M0 0 C0 0.66 0 1.32 0 2 C-2.06172613 2.33808686 -4.1244203 2.67027361 -6.1875 3 C-7.91033203 3.2784375 -7.91033203 3.2784375 -9.66796875 3.5625 C-12.50415393 3.93489477 -15.14719564 4.08596021 -18 4 C-18 4.66 -18 5.32 -18 6 C-18.66 6 -19.32 6 -20 6 C-20 4.35 -20 2.7 -20 1 C-17.60429729 0.8312461 -15.20846637 0.66493164 -12.8125 0.5 C-12.13896484 0.45230469 -11.46542969 0.40460938 -10.77148438 0.35546875 C-7.17363248 0.10976179 -3.60627694 -0.05601984 0 0 Z " fill="#111322" transform="translate(140,72)"/>
<path d="M0 0 C0.66 0 1.32 0 2 0 C1.41164143 4.41599467 0.29784101 8.15109365 -1.4375 12.25 C-1.86933594 13.28640625 -2.30117187 14.3228125 -2.74609375 15.390625 C-4 18 -4 18 -6 20 C-6.93065133 17.39417629 -7.14917407 16.35801776 -6.0625 13.75 C-5.711875 13.1725 -5.36125 12.595 -5 12 C-4.34 12 -3.68 12 -3 12 C-2.87625 10.7625 -2.7525 9.525 -2.625 8.25 C-2.24253695 5.1237803 -1.69450477 2.71120763 0 0 Z " fill="#071441" transform="translate(187,121)"/>
<path d="M0 0 C5.4900584 1.69863345 7.21309316 4.54089361 9.97265625 9.37890625 C11.05999876 12.15307668 11.19800945 13.31065299 10.375 16.125 C9.92125 17.07375 9.4675 18.0225 9 19 C8.67 19 8.34 19 8 19 C7.979375 18.05125 7.95875 17.1025 7.9375 16.125 C7.30242615 11.27263885 4.39044532 7.93955894 1.49609375 4.13671875 C0 2 0 2 0 0 Z " fill="#383760" transform="translate(80,72)"/>
<path d="M0 0 C0.66 0.66 1.32 1.32 2 2 C0.35 5.3 -1.3 8.6 -3 12 C-3.66 11.67 -4.32 11.34 -5 11 C-5.73075648 8.6859378 -6.40138258 6.35171131 -7 4 C-6.01 4 -5.02 4 -4 4 C-3.67 3.34 -3.34 2.68 -3 2 C-2.01 2.33 -1.02 2.66 0 3 C0 2.01 0 1.02 0 0 Z " fill="#202C65" transform="translate(103,73)"/>
<path d="M0 0 C2.02168235 4.0433647 2.35927761 6.32129345 2.625 10.75 C2.69976562 11.92046875 2.77453125 13.0909375 2.8515625 14.296875 C2.90054688 15.18890625 2.94953125 16.0809375 3 17 C1.02 17 -0.96 17 -3 17 C-3.33 16.34 -3.66 15.68 -4 15 C-2.68 15 -1.36 15 0 15 C0 10.05 0 5.1 0 0 Z " fill="#1B2559" transform="translate(106,105)"/>
<path d="M0 0 C0.99 0.495 0.99 0.495 2 1 C2.33 1.99 2.66 2.98 3 4 C3.66 4.33 4.32 4.66 5 5 C5.74609375 6.92578125 5.74609375 6.92578125 6.4375 9.3125 C7.51483408 12.79864258 8.77224657 15.10392054 11 18 C10.67 18.99 10.34 19.98 10 21 C8.7069894 18.75076296 7.41555023 16.50064815 6.125 14.25 C5.76019531 13.61578125 5.39539063 12.9815625 5.01953125 12.328125 C-0 3.56676136 -0 3.56676136 0 0 Z " fill="#050714" transform="translate(6,130)"/>
<path d="M0 0 C1.27617187 0.02320313 2.55234375 0.04640625 3.8671875 0.0703125 C5.78917969 0.09738281 5.78917969 0.09738281 7.75 0.125 C9.23113281 0.15980469 9.23113281 0.15980469 10.7421875 0.1953125 C10.8671875 3.0703125 10.8671875 3.0703125 10.7421875 6.1953125 C10.0821875 6.8553125 9.4221875 7.5153125 8.7421875 8.1953125 C8.7421875 7.5353125 8.7421875 6.8753125 8.7421875 6.1953125 C8.0821875 5.8653125 7.4221875 5.5353125 6.7421875 5.1953125 C7.4021875 4.2053125 8.0621875 3.2153125 8.7421875 2.1953125 C4.1221875 2.1953125 -0.4978125 2.1953125 -5.2578125 2.1953125 C-3.2578125 0.1953125 -3.2578125 0.1953125 0 0 Z " fill="#1A34A2" transform="translate(138.2578125,59.8046875)"/>
<path d="M0 0 C2.54438446 3.81657669 1.84745939 4.59722282 1 9 C0.73276519 12.28762615 0.58884136 15.58022425 0.4375 18.875 C0.39431641 19.75414063 0.35113281 20.63328125 0.30664062 21.5390625 C0.20130661 23.69255797 0.10022351 25.84626064 0 28 C-0.33 28 -0.66 28 -1 28 C-1.02904864 24.08334892 -1.04681517 20.1667256 -1.0625 16.25 C-1.07087891 15.13882813 -1.07925781 14.02765625 -1.08789062 12.8828125 C-1.09111328 11.81289062 -1.09433594 10.74296875 -1.09765625 9.640625 C-1.10289307 8.65610352 -1.10812988 7.67158203 -1.11352539 6.65722656 C-1.01159103 4.27130486 -0.68303357 2.27835419 0 0 Z " fill="#24253C" transform="translate(105,90)"/>
<path d="M0 0 C0.89203125 0.00902344 1.7840625 0.01804688 2.703125 0.02734375 C3.37859375 0.03894531 4.0540625 0.05054688 4.75 0.0625 C4.42 0.7225 4.09 1.3825 3.75 2.0625 C1.7109375 2.4765625 1.7109375 2.4765625 -0.875 2.6875 C-2.22078125 2.79771484 -2.22078125 2.79771484 -3.59375 2.91015625 C-6.82628909 3.09555187 -10.01337058 3.13286151 -13.25 3.0625 C-8.74379679 0.64846256 -5.10869579 -0.06721968 0 0 Z " fill="#03135E" transform="translate(85.25,-0.0625)"/>
<path d="M0 0 C0.99 0.33 1.98 0.66 3 1 C3 1.99 3 2.98 3 4 C5.31 4.33 7.62 4.66 10 5 C10.33 5.99 10.66 6.98 11 8 C7.53058454 7.54177532 4.32604951 7.10868317 1 6 C0.67 4.02 0.34 2.04 0 0 Z " fill="#121C4D" transform="translate(112,102)"/>
<path d="M0 0 C5.28 0.66 10.56 1.32 16 2 C16 3.32 16 4.64 16 6 C15.43152344 5.80664062 14.86304688 5.61328125 14.27734375 5.4140625 C9.54635062 3.81863577 4.81205575 2.33099414 0 1 C0 0.67 0 0.34 0 0 Z " fill="#324495" transform="translate(124,89)"/>
<path d="M0 0 C-1.41478135 0.64995297 -2.83191487 1.29478722 -4.25 1.9375 C-5.03890625 2.29714844 -5.8278125 2.65679687 -6.640625 3.02734375 C-8.79400933 3.91508001 -10.69064641 4.68912548 -13 5 C-13.66 4.34 -14.32 3.68 -15 3 C-13.25531628 2.29911844 -11.50398839 1.61475991 -9.75 0.9375 C-8.77546875 0.55464844 -7.8009375 0.17179688 -6.796875 -0.22265625 C-3.95992605 -1.01113787 -2.70590448 -1.02437812 0 0 Z " fill="#071246" transform="translate(72,4)"/>
<path d="M0 0 C0.33 0 0.66 0 1 0 C1.36597111 7.44141252 1.36597111 7.44141252 -0.1875 9.8125 C-2.42351076 11.27747257 -4.67491599 12.68035773 -7 14 C-6.0360896 11.84973834 -5.28912076 10.25298067 -3.5 8.6875 C-1.23647745 6.14103713 -0.7985305 3.25554744 0 0 Z " fill="#13193F" transform="translate(147,122)"/>
<path d="M0 0 C5.86448454 0.2555331 9.65757571 0.65757571 14 5 C13.67 6.32 13.34 7.64 13 9 C12.01 7.8553125 12.01 7.8553125 11 6.6875 C7.79097265 3.43223306 4.30214295 2.38543586 0 1 C0 0.67 0 0.34 0 0 Z " fill="#6858D3" transform="translate(124,99)"/>
<path d="M0 0 C1.134375 0.020625 2.26875 0.04125 3.4375 0.0625 C2.4475 0.3925 1.4575 0.7225 0.4375 1.0625 C0.7675 2.3825 1.0975 3.7025 1.4375 5.0625 C-1.8625 4.4025 -5.1625 3.7425 -8.5625 3.0625 C-7.2425 2.4025 -5.9225 1.7425 -4.5625 1.0625 C-3.5625 0.0625 -3.5625 0.0625 0 0 Z " fill="#162C7F" transform="translate(128.5625,84.9375)"/>
<path d="M0 0 C0.33 0.66 0.66 1.32 1 2 C0.01 2.33 -0.98 2.66 -2 3 C-2 2.34 -2 1.68 -2 1 C-1.34 0.67 -0.68 0.34 0 0 Z M-8 8 C-7.375 9.875 -7.375 9.875 -7 12 C-7.66 12.66 -8.32 13.32 -9 14 C-11.125 13.625 -11.125 13.625 -13 13 C-11.35 11.35 -9.7 9.7 -8 8 Z " fill="#0E112A" transform="translate(167,157)"/>
<path d="M0 0 C0.33 0 0.66 0 1 0 C0.44854729 5.23880078 -0.42922093 9.97350697 -2 15 C-4 12 -4 12 -3.625 9.3125 C-3.41875 8.549375 -3.2125 7.78625 -3 7 C-2.34 7 -1.68 7 -1 7 C-1.020625 6.030625 -1.04125 5.06125 -1.0625 4.0625 C-1 1 -1 1 0 0 Z " fill="#313253" transform="translate(54,99)"/>
<path d="M0 0 C0.66 0 1.32 0 2 0 C2.33 4.29 2.66 8.58 3 13 C2.34 13 1.68 13 1 13 C0.67 10.36 0.34 7.72 0 5 C-0.66 5 -1.32 5 -2 5 C-1.34 3.35 -0.68 1.7 0 0 Z " fill="#BBB4D5" transform="translate(117,74)"/>
<path d="M0 0 C0.66 0.33 1.32 0.66 2 1 C1.8864371 2.64666203 1.75882619 4.29236082 1.625 5.9375 C1.52058594 7.31228516 1.52058594 7.31228516 1.4140625 8.71484375 C1.27742187 9.46894531 1.14078125 10.22304687 1 11 C0.01 11.495 0.01 11.495 -1 12 C-1.02687279 10.18757948 -1.04633715 8.37504767 -1.0625 6.5625 C-1.07410156 5.55316406 -1.08570313 4.54382813 -1.09765625 3.50390625 C-1 1 -1 1 0 0 Z " fill="#052496" transform="translate(148,67)"/>
<path d="M0 0 C0.6875 1.75 0.6875 1.75 1 4 C-0.3125 6.25 -0.3125 6.25 -2 8 C-2.66 8 -3.32 8 -4 8 C-3.67 6.02 -3.34 4.04 -3 2 C-2.01 2 -1.02 2 0 2 C0 1.34 0 0.68 0 0 Z " fill="#131629" transform="translate(63,118)"/>
<path d="M0 0 C0.66 0 1.32 0 2 0 C0.68775452 3.93673644 -0.91910327 6.22719294 -4 9 C-3.67 7.02 -3.34 5.04 -3 3 C-2.01 2.67 -1.02 2.34 0 2 C0 1.34 0 0.68 0 0 Z " fill="#192D7F" transform="translate(109,64)"/>
<path d="M0 0 C-0.66 2.64 -1.32 5.28 -2 8 C-2.28875 7.38125 -2.5775 6.7625 -2.875 6.125 C-3.93720042 3.86674235 -3.93720042 3.86674235 -6 2 C-3 0 -3 0 0 0 Z " fill="#172058" transform="translate(146,68)"/>
<path d="M0 0 C1.32 0.66 2.64 1.32 4 2 C3.67 2.66 3.34 3.32 3 4 C0.4375 4.625 0.4375 4.625 -2 5 C-1.34 3.35 -0.68 1.7 0 0 Z " fill="#171A39" transform="translate(47,66)"/>
<path d="M0 0 C0.66 0 1.32 0 2 0 C2 0.99 2 1.98 2 3 C0.46875 4.38671875 0.46875 4.38671875 -1.5 5.6875 C-2.47453125 6.34298828 -2.47453125 6.34298828 -3.46875 7.01171875 C-3.9740625 7.33785156 -4.479375 7.66398437 -5 8 C-3.63055898 5.05043472 -2.12169591 2.47531189 0 0 Z " fill="#090B26" transform="translate(20,36)"/>
<path d="M0 0 C0.33 0 0.66 0 1 0 C1 1.98 1 3.96 1 6 C0.01 6.33 -0.98 6.66 -2 7 C-2.125 4.625 -2.125 4.625 -2 2 C-1.34 1.34 -0.68 0.68 0 0 Z " fill="#0E1225" transform="translate(2,97)"/>
<path d="M0 0 C1.9453125 -0.29296875 1.9453125 -0.29296875 4.125 -0.1875 C5.40375 -0.125625 6.6825 -0.06375 8 0 C7.67 0.99 7.34 1.98 7 3 C6.2575 2.814375 5.515 2.62875 4.75 2.4375 C2.05009037 2.00796892 0.55368923 2.14877026 -2 3 C-1.34 2.01 -0.68 1.02 0 0 Z " fill="#131A42" transform="translate(67,82)"/>
<path d="M0 0 C0.66 0.33 1.32 0.66 2 1 C-0.31 3.31 -2.62 5.62 -5 8 C-5 5 -5 5 -2.5 2.3125 C-1.675 1.549375 -0.85 0.78625 0 0 Z " fill="#C3BDE6" transform="translate(113,64)"/>
</svg>
