<?xml version="1.0" encoding="UTF-8"?>
<svg version="1.1" xmlns="http://www.w3.org/2000/svg" width="16" height="16">
<path d="M0 0 C2.25 1.0234375 2.25 1.0234375 4 2 C4.6132879 10.92674617 4.6132879 10.92674617 2.5 14.625 C-1.05595373 16.58077455 -4.03411613 16.78017388 -8 16 C-10.5 14.5 -10.5 14.5 -12 12 C-12.791013 7.97901723 -12.62153384 5.03588973 -10.5 1.5 C-7.02701663 -0.58379002 -3.96112438 -0.66534511 0 0 Z " fill="#ACB6C0" transform="translate(12,0)"/>
<path d="M0 0 C0.680625 -0.00515625 1.36125 -0.0103125 2.0625 -0.015625 C4 0.25 4 0.25 7 2.25 C6.67 3.9 6.34 5.55 6 7.25 C1.38 7.25 -3.24 7.25 -8 7.25 C-7.67 5.6 -7.34 3.95 -7 2.25 C-4.00261059 0.25174039 -3.36652492 -0.02550398 0 0 Z " fill="#D8DFE5" transform="translate(8,-0.25)"/>
<path d="M0 0 C3.63 0 7.26 0 11 0 C11 0.66 11 1.32 11 2 C11.66 2 12.32 2 13 2 C13 2.66 13 3.32 13 4 C11.865625 3.979375 10.73125 3.95875 9.5625 3.9375 C6.18424326 3.58422523 6.18424326 3.58422523 5 5 C3.00041636 5.04080783 0.99954746 5.04254356 -1 5 C-0.67 3.35 -0.34 1.7 0 0 Z " fill="#685957" transform="translate(2,6)"/>
<path d="M0 0 C0.33 0 0.66 0 1 0 C1.08121924 1.60332791 1.13929134 3.20784026 1.1875 4.8125 C1.22230469 5.70582031 1.25710937 6.59914063 1.29296875 7.51953125 C0.95081002 10.41647515 0.24606427 11.22555028 -2 13 C-2 11.68 -2 10.36 -2 9 C-2.94875 9.04125 -3.8975 9.0825 -4.875 9.125 C-8 9 -8 9 -10 7 C-9.01 6.67 -8.02 6.34 -7 6 C-7 6.66 -7 7.32 -7 8 C-4.69 8 -2.38 8 0 8 C0 7.34 0 6.68 0 6 C-0.66 5.67 -1.32 5.34 -2 5 C-1.34 3.35 -0.68 1.7 0 0 Z " fill="#868D96" transform="translate(15,2)"/>
<path d="M0 0 C0.33 1.32 0.66 2.64 1 4 C2.65 4.33 4.3 4.66 6 5 C5.01 6.32 4.02 7.64 3 9 C2.01 8.67 1.02 8.34 0 8 C-0.38063221 5.6739143 -0.71269945 3.33944736 -1 1 C-0.67 0.67 -0.34 0.34 0 0 Z " fill="#9FAAB4" transform="translate(1,6)"/>
<path d="M0 0 C6.75 -0.125 6.75 -0.125 9 1 C9 1.66 9 2.32 9 3 C2.25 3.125 2.25 3.125 0 2 C0 1.34 0 0.68 0 0 Z " fill="#394551" transform="translate(6,7)"/>
</svg>
